<?xml version="1.0" encoding="UTF-8" standalone="no"?>
<!-- Created with Inkscape (http://www.inkscape.org/) -->

<svg
   xmlns:dc="http://purl.org/dc/elements/1.1/"
   xmlns:cc="http://creativecommons.org/ns#"
   xmlns:rdf="http://www.w3.org/1999/02/22-rdf-syntax-ns#"
   xmlns:svg="http://www.w3.org/2000/svg"
   xmlns="http://www.w3.org/2000/svg"
   xmlns:sodipodi="http://sodipodi.sourceforge.net/DTD/sodipodi-0.dtd"
   xmlns:inkscape="http://www.inkscape.org/namespaces/inkscape"
   width="186.19664"
   height="130.77301"
   viewBox="0 0 49.264528 34.600361"
   version="1.1"
   id="svg8"
   inkscape:version="0.92.2 (5c3e80d, 2017-08-06)"
   sodipodi:docname="CookBook Logo.svg"
   inkscape:export-filename="C:\Users\diveb\LambdaSchool\Labs\Cookbook\Project\Labs8-Cookbook\cookbook\designs\Logo\Logo.png"
   inkscape:export-xdpi="72"
   inkscape:export-ydpi="72">
  <defs
     id="defs2">
    <clipPath
       clipPathUnits="userSpaceOnUse"
       id="clipPath4891">
      <rect
         style="opacity:1;fill:#ffffff;fill-opacity:1;stroke:#000000;stroke-width:0.26458335;stroke-linecap:round;stroke-linejoin:round;stroke-miterlimit:4;stroke-dasharray:none;stroke-dashoffset:0;stroke-opacity:1"
         id="rect4893"
         width="361.42084"
         height="26.659826"
         x="111.87903"
         y="92.67746"
         rx="0.2079649"
         ry="0.10135975" />
    </clipPath>
  </defs>
  <sodipodi:namedview
     id="base"
     pagecolor="#ffffff"
     bordercolor="#666666"
     borderopacity="1.0"
     inkscape:pageopacity="0.0"
     inkscape:pageshadow="2"
     inkscape:zoom="1.0767073"
     inkscape:cx="61.57954"
     inkscape:cy="206.81178"
     inkscape:document-units="px"
     inkscape:current-layer="layer1"
     showgrid="false"
     inkscape:window-width="2560"
     inkscape:window-height="1377"
     inkscape:window-x="2552"
     inkscape:window-y="-8"
     inkscape:window-maximized="1"
     units="px"
     inkscape:snap-global="false"
     inkscape:snap-page="true"
     fit-margin-top="0"
     fit-margin-left="0"
     fit-margin-right="0"
     fit-margin-bottom="0">
    <inkscape:grid
       type="xygrid"
       id="grid4618"
       originx="33.861681"
       originy="-221.91113" />
  </sodipodi:namedview>
  <metadata
     id="metadata5">
    <rdf:RDF>
      <cc:Work
         rdf:about="">
        <dc:format>image/svg+xml</dc:format>
        <dc:type
           rdf:resource="http://purl.org/dc/dcmitype/StillImage" />
        <dc:title></dc:title>
      </cc:Work>
    </rdf:RDF>
  </metadata>
  <g
     inkscape:label="Layer 1"
     inkscape:groupmode="layer"
     id="layer1"
     transform="translate(33.861682,-40.488509)">
    <text
       xml:space="preserve"
       style="font-style:normal;font-variant:normal;font-weight:normal;font-stretch:normal;font-size:7.05555534px;line-height:1.25;font-family:Arial;-inkscape-font-specification:Arial;text-align:start;letter-spacing:1.32291675px;word-spacing:0px;writing-mode:lr-tb;text-anchor:start;fill:#000000;fill-opacity:1;stroke:none;stroke-width:0.26458335"
       x="7.2542925"
       y="30.663824"
       id="text4527"><tspan
         sodipodi:role="line"
         id="tspan4525"
         x="7.2542925"
         y="37.019146"
         style="stroke-width:0.26458335" /></text>
    <text
       xml:space="preserve"
       style="font-style:normal;font-variant:normal;font-weight:normal;font-stretch:normal;font-size:7.05555534px;line-height:1.25;font-family:Arial;-inkscape-font-specification:Arial;text-align:start;letter-spacing:1.32291675px;word-spacing:0px;writing-mode:lr-tb;text-anchor:start;fill:#000000;fill-opacity:1;stroke:none;stroke-width:0.26458335"
       x="10.451042"
       y="116.81874"
       id="text4659"><tspan
         sodipodi:role="line"
         id="tspan4657"
         x="10.451042"
         y="123.17406"
         style="stroke-width:0.26458335" /></text>
    <text
       xml:space="preserve"
       style="font-style:normal;font-variant:normal;font-weight:normal;font-stretch:normal;font-size:4.93888903px;line-height:1.25;font-family:'Arial Rounded MT Bold';-inkscape-font-specification:'Arial Rounded MT Bold, ';text-align:start;letter-spacing:0.26458335px;word-spacing:0px;writing-mode:lr-tb;text-anchor:start;fill:#b3b3b3;fill-opacity:1;stroke:none;stroke-width:0.26458335;stroke-miterlimit:4;stroke-dasharray:none"
       x="9.7005272"
       y="115.41142"
       id="text4567-3"><tspan
         sodipodi:role="line"
         id="tspan4565-1"
         x="9.7005272"
         y="119.86214"
         style="font-style:normal;font-variant:normal;font-weight:normal;font-stretch:normal;font-size:4.93888903px;font-family:'Arial Rounded MT Bold';-inkscape-font-specification:'Arial Rounded MT Bold, ';letter-spacing:0.26458335px;fill:#b3b3b3;stroke-width:0.26458335;stroke-miterlimit:4;stroke-dasharray:none" /></text>
    <g
       id="g5578">
      <g
         transform="translate(23.664322,-143.31756)"
         id="g5148">
        <rect
           style="opacity:1;fill:#ffffff;fill-opacity:1;stroke:#000000;stroke-width:0.79375005;stroke-linecap:round;stroke-linejoin:round;stroke-miterlimit:4;stroke-dasharray:none;stroke-dashoffset:0;stroke-opacity:1"
           id="rect5138"
           width="9.8174286"
           height="14.161447"
           x="-100.55166"
           y="140.802"
           rx="0.2079649"
           ry="0.10135975" />
        <rect
           ry="0.10135975"
           rx="0.2079649"
           y="140.802"
           x="-111.6824"
           height="14.161447"
           width="9.8174286"
           id="rect5164"
           style="opacity:1;fill:#000000;fill-opacity:1;stroke:#000000;stroke-width:0.79375005;stroke-linecap:round;stroke-linejoin:round;stroke-miterlimit:4;stroke-dasharray:none;stroke-dashoffset:0;stroke-opacity:1" />
      </g>
      <g
         transform="translate(5.5309473,7.0664537)"
         id="g5203">
        <path
           style="opacity:1;fill:none;fill-opacity:1;stroke:#ffffff;stroke-width:0.79375005;stroke-linecap:round;stroke-linejoin:round;stroke-miterlimit:4;stroke-dasharray:none;stroke-dashoffset:0;stroke-opacity:1"
           id="path5198"
           sodipodi:type="arc"
           sodipodi:cx="83.069901"
           sodipodi:cy="8.3115597"
           sodipodi:rx="1.5972697"
           sodipodi:ry="1.5972697"
           sodipodi:start="0"
           sodipodi:end="3.1415927"
           d="m 84.66717,8.3115597 a 1.5972697,1.5972697 0 0 1 -0.798635,1.3832761 1.5972697,1.5972697 0 0 1 -1.597269,-10e-8 1.5972697,1.5972697 0 0 1 -0.798635,-1.3832761"
           sodipodi:open="true"
           transform="scale(-1)" />
        <path
           transform="scale(-1)"
           sodipodi:open="true"
           d="m 84.66717,8.3115597 a 1.5972697,1.5972697 0 0 1 -0.798635,1.3832761 1.5972697,1.5972697 0 0 1 -1.597269,-10e-8 1.5972697,1.5972697 0 0 1 -0.798635,-1.3832761"
           sodipodi:end="3.1415927"
           sodipodi:start="0"
           sodipodi:ry="1.5972697"
           sodipodi:rx="1.5972697"
           sodipodi:cy="8.3115597"
           sodipodi:cx="83.069901"
           sodipodi:type="arc"
           id="path5142"
           style="opacity:1;fill:none;fill-opacity:1;stroke:#000000;stroke-width:0.26458335;stroke-linecap:round;stroke-linejoin:round;stroke-miterlimit:4;stroke-dasharray:none;stroke-dashoffset:0;stroke-opacity:1" />
        <path
           style="opacity:1;fill:none;fill-opacity:1;stroke:#000000;stroke-width:0.26458335;stroke-linecap:round;stroke-linejoin:round;stroke-miterlimit:4;stroke-dasharray:none;stroke-dashoffset:0;stroke-opacity:1"
           id="path5150"
           sodipodi:type="arc"
           sodipodi:cx="-83.069901"
           sodipodi:cy="-8.2865572"
           sodipodi:rx="1.5972697"
           sodipodi:ry="1.5972697"
           sodipodi:start="1.1831267"
           sodipodi:end="1.9716304"
           d="m -82.466081,-6.8078169 a 1.5972697,1.5972697 0 0 1 -1.227052,-0.00808"
           sodipodi:open="true" />
      </g>
      <text
         xml:space="preserve"
         style="font-style:normal;font-variant:normal;font-weight:normal;font-stretch:normal;font-size:9.65465546px;line-height:1.25;font-family:'Arial Rounded MT Bold';-inkscape-font-specification:'Arial Rounded MT Bold, ';text-align:start;letter-spacing:1.81024814px;word-spacing:0px;writing-mode:lr-tb;text-anchor:start;fill:#ffffff;fill-opacity:1;stroke:none;stroke-width:0.36204961"
         x="-87.070251"
         y="8.0206757"
         id="text5168"><tspan
           sodipodi:role="line"
           id="tspan5166"
           x="-87.070251"
           y="8.0206757"
           style="font-style:normal;font-variant:normal;font-weight:normal;font-stretch:normal;font-family:'Arial Rounded MT Bold';-inkscape-font-specification:'Arial Rounded MT Bold, ';fill:#ffffff;stroke-width:0.36204961">C</tspan></text>
      <text
         id="text5196"
         y="7.9501796"
         x="-75.121338"
         style="font-style:normal;font-variant:normal;font-weight:normal;font-stretch:normal;font-size:9.45770359px;line-height:1.25;font-family:'Arial Rounded MT Bold';-inkscape-font-specification:'Arial Rounded MT Bold, ';text-align:start;letter-spacing:1.77331972px;word-spacing:0px;writing-mode:lr-tb;text-anchor:start;fill:#000000;fill-opacity:1;stroke:none;stroke-width:0.35466391"
         xml:space="preserve"><tspan
           style="font-style:normal;font-variant:normal;font-weight:normal;font-stretch:normal;font-family:'Arial Rounded MT Bold';-inkscape-font-specification:'Arial Rounded MT Bold, ';stroke-width:0.35466391"
           y="7.9501796"
           x="-75.121338"
           id="tspan5194"
           sodipodi:role="line">B</tspan></text>
      <g
         transform="translate(5.5309473,12.996402)"
         id="g5211">
        <path
           transform="scale(-1)"
           sodipodi:open="true"
           d="m 84.66717,8.3115597 a 1.5972697,1.5972697 0 0 1 -0.798635,1.3832761 1.5972697,1.5972697 0 0 1 -1.597269,-10e-8 1.5972697,1.5972697 0 0 1 -0.798635,-1.3832761"
           sodipodi:end="3.1415927"
           sodipodi:start="0"
           sodipodi:ry="1.5972697"
           sodipodi:rx="1.5972697"
           sodipodi:cy="8.3115597"
           sodipodi:cx="83.069901"
           sodipodi:type="arc"
           id="path5205"
           style="opacity:1;fill:none;fill-opacity:1;stroke:#ffffff;stroke-width:0.79375005;stroke-linecap:round;stroke-linejoin:round;stroke-miterlimit:4;stroke-dasharray:none;stroke-dashoffset:0;stroke-opacity:1" />
        <path
           style="opacity:1;fill:none;fill-opacity:1;stroke:#000000;stroke-width:0.26458335;stroke-linecap:round;stroke-linejoin:round;stroke-miterlimit:4;stroke-dasharray:none;stroke-dashoffset:0;stroke-opacity:1"
           id="path5207"
           sodipodi:type="arc"
           sodipodi:cx="83.069901"
           sodipodi:cy="8.3115597"
           sodipodi:rx="1.5972697"
           sodipodi:ry="1.5972697"
           sodipodi:start="0"
           sodipodi:end="3.1415927"
           d="m 84.66717,8.3115597 a 1.5972697,1.5972697 0 0 1 -0.798635,1.3832761 1.5972697,1.5972697 0 0 1 -1.597269,-10e-8 1.5972697,1.5972697 0 0 1 -0.798635,-1.3832761"
           sodipodi:open="true"
           transform="scale(-1)" />
        <path
           sodipodi:open="true"
           d="m -82.466081,-6.8078169 a 1.5972697,1.5972697 0 0 1 -1.227052,-0.00808"
           sodipodi:end="1.9716304"
           sodipodi:start="1.1831267"
           sodipodi:ry="1.5972697"
           sodipodi:rx="1.5972697"
           sodipodi:cy="-8.2865572"
           sodipodi:cx="-83.069901"
           sodipodi:type="arc"
           id="path5209"
           style="opacity:1;fill:none;fill-opacity:1;stroke:#000000;stroke-width:0.26458335;stroke-linecap:round;stroke-linejoin:round;stroke-miterlimit:4;stroke-dasharray:none;stroke-dashoffset:0;stroke-opacity:1" />
      </g>
      <g
         id="g5219"
         transform="translate(5.5309473,18.695368)">
        <path
           style="opacity:1;fill:none;fill-opacity:1;stroke:#ffffff;stroke-width:0.79375005;stroke-linecap:round;stroke-linejoin:round;stroke-miterlimit:4;stroke-dasharray:none;stroke-dashoffset:0;stroke-opacity:1"
           id="path5213"
           sodipodi:type="arc"
           sodipodi:cx="83.069901"
           sodipodi:cy="8.3115597"
           sodipodi:rx="1.5972697"
           sodipodi:ry="1.5972697"
           sodipodi:start="0"
           sodipodi:end="3.1415927"
           d="m 84.66717,8.3115597 a 1.5972697,1.5972697 0 0 1 -0.798635,1.3832761 1.5972697,1.5972697 0 0 1 -1.597269,-10e-8 1.5972697,1.5972697 0 0 1 -0.798635,-1.3832761"
           sodipodi:open="true"
           transform="scale(-1)" />
        <path
           transform="scale(-1)"
           sodipodi:open="true"
           d="m 84.66717,8.3115597 a 1.5972697,1.5972697 0 0 1 -0.798635,1.3832761 1.5972697,1.5972697 0 0 1 -1.597269,-10e-8 1.5972697,1.5972697 0 0 1 -0.798635,-1.3832761"
           sodipodi:end="3.1415927"
           sodipodi:start="0"
           sodipodi:ry="1.5972697"
           sodipodi:rx="1.5972697"
           sodipodi:cy="8.3115597"
           sodipodi:cx="83.069901"
           sodipodi:type="arc"
           id="path5215"
           style="opacity:1;fill:none;fill-opacity:1;stroke:#000000;stroke-width:0.26458335;stroke-linecap:round;stroke-linejoin:round;stroke-miterlimit:4;stroke-dasharray:none;stroke-dashoffset:0;stroke-opacity:1" />
        <path
           style="opacity:1;fill:none;fill-opacity:1;stroke:#000000;stroke-width:0.26458335;stroke-linecap:round;stroke-linejoin:round;stroke-miterlimit:4;stroke-dasharray:none;stroke-dashoffset:0;stroke-opacity:1"
           id="path5217"
           sodipodi:type="arc"
           sodipodi:cx="-83.069901"
           sodipodi:cy="-8.2865572"
           sodipodi:rx="1.5972697"
           sodipodi:ry="1.5972697"
           sodipodi:start="1.1831267"
           sodipodi:end="1.9716304"
           d="m -82.466081,-6.8078169 a 1.5972697,1.5972697 0 0 1 -1.227052,-0.00808"
           sodipodi:open="true" />
      </g>
    </g>
    <g
       id="g5403"
       transform="translate(-27.427359,-17.287405)">
      <path
         inkscape:connector-curvature="0"
         id="rect5285"
         d="m -49.232402,33.871984 c 0.30643,0.199247 0.547113,0.474784 0.703834,0.794784 h 8.284766 v 13.367143 h -9.023224 v -1.446423 c -0.104145,-0.187074 -0.257381,-0.346885 -0.449585,-0.457853 -0.109331,-0.06312 -0.226211,-0.105245 -0.345715,-0.131259 v 2.330608 c 0,0.246591 0.17589,0.376645 0.285255,0.429948 0.109363,0.0533 0.210884,0.06821 0.320392,0.06821 h 9.402527 c 0.109517,0 0.210513,-0.01491 0.319879,-0.06821 0.109363,-0.0533 0.283186,-0.183357 0.283186,-0.429948 v -13.95884 c 0,-0.246586 -0.173823,-0.374576 -0.283186,-0.427879 -0.109366,-0.0533 -0.210362,-0.07028 -0.319879,-0.07028 z m -0.829924,0.497644 c 0,1.83e-4 0,3.36e-4 0,5.16e-4 v 5.122686 c 0.257688,0.0331 0.510503,0.116119 0.74259,0.250114 0.01846,0.01066 0.03468,0.02395 0.05271,0.03514 v -4.819861 c -0.104142,-0.18705 -0.2574,-0.346377 -0.449585,-0.457335 -0.109313,-0.06311 -0.226235,-0.105244 -0.345715,-0.13126 z m 0,5.929354 v 4.893242 c 0.257688,0.0331 0.510503,0.116118 0.74259,0.250114 0.01846,0.01066 0.03468,0.02395 0.05271,0.03514 v -4.589384 c -0.104145,-0.187073 -0.257381,-0.346367 -0.449585,-0.457337 -0.109331,-0.06312 -0.226211,-0.10576 -0.345715,-0.131775 z"
         style="color:#000000;font-style:normal;font-variant:normal;font-weight:normal;font-stretch:normal;font-size:medium;line-height:normal;font-family:sans-serif;font-variant-ligatures:normal;font-variant-position:normal;font-variant-caps:normal;font-variant-numeric:normal;font-variant-alternates:normal;font-feature-settings:normal;text-indent:0;text-align:start;text-decoration:none;text-decoration-line:none;text-decoration-style:solid;text-decoration-color:#000000;letter-spacing:normal;word-spacing:normal;text-transform:none;writing-mode:lr-tb;direction:ltr;text-orientation:mixed;dominant-baseline:auto;baseline-shift:baseline;text-anchor:start;white-space:normal;shape-padding:0;clip-rule:nonzero;display:inline;overflow:visible;visibility:visible;opacity:1;isolation:auto;mix-blend-mode:normal;color-interpolation:sRGB;color-interpolation-filters:linearRGB;solid-color:#000000;solid-opacity:1;vector-effect:none;fill:#000000;fill-opacity:1;fill-rule:nonzero;stroke:none;stroke-width:0.79375005;stroke-linecap:round;stroke-linejoin:round;stroke-miterlimit:4;stroke-dasharray:none;stroke-dashoffset:0;stroke-opacity:1;color-rendering:auto;image-rendering:auto;shape-rendering:auto;text-rendering:auto;enable-background:accumulate" />
      <path
         inkscape:connector-curvature="0"
         id="rect5287"
         d="m -60.587782,33.871984 c -0.109514,0 -0.210513,0.01698 -0.319876,0.07028 -0.109366,0.0533 -0.285255,0.181293 -0.285255,0.427879 v 13.95884 c 0,0.246591 0.175889,0.376645 0.285255,0.429948 0.109363,0.0533 0.210362,0.06821 0.319876,0.06821 h 9.402527 c 0.109514,0 0.211032,-0.01491 0.320395,-0.06821 0.109363,-0.0533 0.283186,-0.183357 0.283186,-0.429948 v -2.328024 c -0.115393,0.02634 -0.228082,0.06762 -0.33383,0.128675 -0.198776,0.114763 -0.355251,0.282062 -0.459404,0.47749 v 1.426786 h -9.023221 V 34.666768 h 8.29355 c 0.156189,-0.319926 0.396571,-0.595545 0.7028,-0.794784 z m 10.006108,0.49971 c -0.115401,0.02634 -0.228071,0.06813 -0.33383,0.129194 -0.198877,0.114821 -0.355254,0.281932 -0.459404,0.477488 v 4.805392 c 0.02078,-0.01304 0.03963,-0.0285 0.06098,-0.04082 0.229116,-0.13228 0.477999,-0.214614 0.732256,-0.248564 z m 0,5.929872 c -0.115393,0.02634 -0.228082,0.06814 -0.33383,0.129191 -0.198776,0.114764 -0.355251,0.281546 -0.459404,0.476974 v 4.575431 c 0.02078,-0.01304 0.03963,-0.0285 0.06098,-0.04082 0.229116,-0.13228 0.478002,-0.214614 0.732256,-0.248564 z"
         style="color:#000000;font-style:normal;font-variant:normal;font-weight:normal;font-stretch:normal;font-size:medium;line-height:normal;font-family:sans-serif;font-variant-ligatures:normal;font-variant-position:normal;font-variant-caps:normal;font-variant-numeric:normal;font-variant-alternates:normal;font-feature-settings:normal;text-indent:0;text-align:start;text-decoration:none;text-decoration-line:none;text-decoration-style:solid;text-decoration-color:#000000;letter-spacing:normal;word-spacing:normal;text-transform:none;writing-mode:lr-tb;direction:ltr;text-orientation:mixed;dominant-baseline:auto;baseline-shift:baseline;text-anchor:start;white-space:normal;shape-padding:0;clip-rule:nonzero;display:inline;overflow:visible;visibility:visible;opacity:1;isolation:auto;mix-blend-mode:normal;color-interpolation:sRGB;color-interpolation-filters:linearRGB;solid-color:#000000;solid-opacity:1;vector-effect:none;fill:#000000;fill-opacity:1;fill-rule:nonzero;stroke:none;stroke-width:0.79375005;stroke-linecap:round;stroke-linejoin:round;stroke-miterlimit:4;stroke-dasharray:none;stroke-dashoffset:0;stroke-opacity:1;color-rendering:auto;image-rendering:auto;shape-rendering:auto;text-rendering:auto;enable-background:accumulate" />
      <path
         inkscape:connector-curvature="0"
         id="rect5359"
         d="m -60.587264,34.269377 c -0.115212,0 -0.208256,0.04513 -0.208256,0.101285 v 13.958322 c 0,0.05615 0.09304,0.101802 0.208256,0.101802 h 9.401493 c 0.115213,0 0.207743,-0.04565 0.207738,-0.101802 v -2.157492 c -0.334005,0.221584 -0.538983,0.593138 -0.538983,0.997356 a 0.3969147,0.3969147 0 1 1 -0.793234,0 c 0,-0.711804 0.379881,-1.370608 0.99632,-1.72651 0.107802,-0.06224 0.220792,-0.109908 0.335897,-0.150379 v -4.819344 c -0.333933,0.221593 -0.538983,0.592667 -0.538983,0.996839 a 0.3969147,0.3969147 0 1 1 -0.793234,0 c 0,-0.711803 0.379881,-1.370608 0.99632,-1.72651 0.107773,-0.06222 0.220827,-0.109396 0.335897,-0.149862 v -5.050337 c -0.334008,0.221583 -0.538983,0.593137 -0.538983,0.997355 a 0.3969147,0.3969147 0 1 1 -0.793234,0 c 0,-0.471766 0.169521,-0.918261 0.46147,-1.270723 z m 4.516002,3.507279 c 0.559419,0 1.057634,0.111208 1.494483,0.334346 0.436848,0.223138 0.771506,0.499931 1.004072,0.829924 0.232566,0.32685 0.348816,0.636346 0.348816,0.928625 0,0.160283 -0.05687,0.301695 -0.170013,0.424264 -0.113141,0.122569 -0.249513,0.183968 -0.409795,0.183968 -0.179138,0 -0.314518,-0.04227 -0.405661,-0.127124 -0.088,-0.08485 -0.18714,-0.231309 -0.297138,-0.438733 -0.182282,-0.342564 -0.397158,-0.598718 -0.645441,-0.768429 -0.245136,-0.16971 -0.5486,-0.254248 -0.910021,-0.254248 -0.57513,0 -1.034095,0.21841 -1.376659,0.655258 -0.339423,0.436848 -0.509013,1.057347 -0.509013,1.861901 0,0.537418 0.07549,0.98531 0.226343,1.343588 0.150852,0.355135 0.364747,0.620854 0.641303,0.79685 0.276566,0.175996 0.600151,0.264067 0.971002,0.264067 0.402278,0 0.74146,-0.09914 1.018024,-0.29714 0.27971,-0.201138 0.490577,-0.495037 0.632005,-0.881599 0.0597,-0.182282 0.133175,-0.330244 0.221173,-0.443384 0.088,-0.116284 0.22941,-0.17415 0.424265,-0.17415 0.166568,0 0.310004,0.05787 0.429432,0.17415 0.119417,0.116283 0.1788,0.261228 0.1788,0.434082 0,0.219995 -0.05485,0.458527 -0.164849,0.716235 -0.106854,0.254566 -0.276447,0.506195 -0.509013,0.754476 -0.232566,0.245138 -0.529479,0.444416 -0.890903,0.598413 -0.36142,0.153997 -0.78264,0.230994 -1.263488,0.230994 -0.364564,0 -0.696206,-0.03421 -0.99477,-0.103353 -0.298566,-0.06914 -0.570317,-0.176342 -0.815454,-0.320911 -0.241996,-0.147711 -0.465447,-0.340957 -0.669726,-0.579809 -0.182282,-0.216853 -0.337786,-0.458917 -0.466641,-0.726054 -0.128854,-0.27028 -0.225972,-0.557629 -0.29197,-0.86248 -0.06286,-0.30485 -0.09457,-0.628436 -0.09457,-0.971 0,-0.556274 0.08001,-1.054491 0.240294,-1.494483 0.163425,-0.43999 0.396441,-0.81541 0.698148,-1.126546 0.30171,-0.314279 0.654982,-0.553327 1.0604,-0.716752 0.405421,-0.163425 0.837724,-0.244946 1.296562,-0.244946 z"
         style="opacity:1;fill:#000000;fill-opacity:1;stroke:none;stroke-width:0.79375005;stroke-linecap:round;stroke-linejoin:round;stroke-miterlimit:4;stroke-dasharray:none;stroke-dashoffset:0;stroke-opacity:1" />
      <path
         transform="scale(-1)"
         sodipodi:open="true"
         d="m 51.913409,-35.539585 a 1.5972697,1.5972697 0 0 1 -0.798635,1.383276 1.5972697,1.5972697 0 0 1 -1.59727,0 1.5972697,1.5972697 0 0 1 -0.798634,-1.383276"
         sodipodi:end="3.1415927"
         sodipodi:start="0"
         sodipodi:ry="1.5972697"
         sodipodi:rx="1.5972697"
         sodipodi:cy="-35.539585"
         sodipodi:cx="50.316139"
         sodipodi:type="arc"
         id="path5293"
         style="opacity:1;fill:none;fill-opacity:1;stroke:#000000;stroke-width:0.26458335;stroke-linecap:round;stroke-linejoin:round;stroke-miterlimit:4;stroke-dasharray:none;stroke-dashoffset:0;stroke-opacity:1" />
      <text
         xml:space="preserve"
         style="font-style:normal;font-variant:normal;font-weight:normal;font-stretch:normal;font-size:9.45770359px;line-height:1.25;font-family:'Arial Rounded MT Bold';-inkscape-font-specification:'Arial Rounded MT Bold, ';text-align:start;letter-spacing:1.77331972px;word-spacing:0px;writing-mode:lr-tb;text-anchor:start;fill:#000000;fill-opacity:1;stroke:none;stroke-width:0.35466391"
         x="-47.898521"
         y="44.734871"
         id="text5305"><tspan
           sodipodi:role="line"
           id="tspan5303"
           x="-47.898521"
           y="44.734871"
           style="font-style:normal;font-variant:normal;font-weight:normal;font-stretch:normal;font-family:'Arial Rounded MT Bold';-inkscape-font-specification:'Arial Rounded MT Bold, ';stroke-width:0.35466391">B</tspan></text>
      <path
         style="opacity:1;fill:none;fill-opacity:1;stroke:#000000;stroke-width:0.26458335;stroke-linecap:round;stroke-linejoin:round;stroke-miterlimit:4;stroke-dasharray:none;stroke-dashoffset:0;stroke-opacity:1"
         id="path5309"
         sodipodi:type="arc"
         sodipodi:cx="50.316139"
         sodipodi:cy="-41.469532"
         sodipodi:rx="1.5972697"
         sodipodi:ry="1.5972697"
         sodipodi:start="0"
         sodipodi:end="3.1415927"
         d="m 51.913409,-41.469532 a 1.5972697,1.5972697 0 0 1 -0.798635,1.383276 1.5972697,1.5972697 0 0 1 -1.59727,0 1.5972697,1.5972697 0 0 1 -0.798634,-1.383276"
         sodipodi:open="true"
         transform="scale(-1)" />
      <path
         transform="scale(-1)"
         sodipodi:open="true"
         d="m 51.913409,-47.168499 a 1.5972697,1.5972697 0 0 1 -0.798635,1.383276 1.5972697,1.5972697 0 0 1 -1.59727,0 1.5972697,1.5972697 0 0 1 -0.798634,-1.383276"
         sodipodi:end="3.1415927"
         sodipodi:start="0"
         sodipodi:ry="1.5972697"
         sodipodi:rx="1.5972697"
         sodipodi:cy="-47.168499"
         sodipodi:cx="50.316139"
         sodipodi:type="arc"
         id="path5317"
         style="opacity:1;fill:none;fill-opacity:1;stroke:#000000;stroke-width:0.26458335;stroke-linecap:round;stroke-linejoin:round;stroke-miterlimit:4;stroke-dasharray:none;stroke-dashoffset:0;stroke-opacity:1" />
    </g>
    <g
       id="g5596">
      <g
         id="g6507">
        <rect
           ry="0.10135975"
           rx="0.2079649"
           y="-2.8841681"
           x="-50.470955"
           height="14.161447"
           width="9.8174286"
           id="rect5429"
           style="opacity:1;fill:#ffffff;fill-opacity:1;stroke:#000000;stroke-width:0.79375005;stroke-linecap:round;stroke-linejoin:round;stroke-miterlimit:4;stroke-dasharray:none;stroke-dashoffset:0;stroke-opacity:1" />
        <rect
           style="opacity:1;fill:#000000;fill-opacity:1;stroke:#000000;stroke-width:0.79375005;stroke-linecap:round;stroke-linejoin:round;stroke-miterlimit:4;stroke-dasharray:none;stroke-dashoffset:0;stroke-opacity:1"
           id="rect5431"
           width="9.8174286"
           height="14.161447"
           x="-61.6017"
           y="-2.8841681"
           rx="0.2079649"
           ry="0.10135975" />
        <g
           transform="matrix(1.1226197,0,0,1.1226197,42.133334,7.8238965)"
           id="g5441">
          <path
             style="opacity:1;fill:none;fill-opacity:1;stroke:#ffffff;stroke-width:1.32291675;stroke-linecap:round;stroke-linejoin:round;stroke-miterlimit:4;stroke-dasharray:none;stroke-dashoffset:0;stroke-opacity:1"
             id="path5435"
             sodipodi:type="arc"
             sodipodi:cx="83.069901"
             sodipodi:cy="8.3115597"
             sodipodi:rx="1.5972697"
             sodipodi:ry="1.5972697"
             sodipodi:start="0"
             sodipodi:end="3.1415927"
             d="m 84.66717,8.3115597 a 1.5972697,1.5972697 0 0 1 -0.798635,1.3832761 1.5972697,1.5972697 0 0 1 -1.597269,-10e-8 1.5972697,1.5972697 0 0 1 -0.798635,-1.3832761"
             sodipodi:open="true"
             transform="scale(-1)" />
          <path
             transform="scale(-1)"
             sodipodi:open="true"
             d="m 84.66717,8.3115597 a 1.5972697,1.5972697 0 0 1 -0.798635,1.3832761 1.5972697,1.5972697 0 0 1 -1.597269,-10e-8 1.5972697,1.5972697 0 0 1 -0.798635,-1.3832761"
             sodipodi:end="3.1415927"
             sodipodi:start="0"
             sodipodi:ry="1.5972697"
             sodipodi:rx="1.5972697"
             sodipodi:cy="8.3115597"
             sodipodi:cx="83.069901"
             sodipodi:type="arc"
             id="path5437"
             style="opacity:1;fill:none;fill-opacity:1;stroke:#000000;stroke-width:0.5291667;stroke-linecap:round;stroke-linejoin:round;stroke-miterlimit:4;stroke-dasharray:none;stroke-dashoffset:0;stroke-opacity:1" />
        </g>
        <text
           xml:space="preserve"
           style="font-style:normal;font-variant:normal;font-weight:normal;font-stretch:normal;font-size:9.65465546px;line-height:1.25;font-family:'Arial Rounded MT Bold';-inkscape-font-specification:'Arial Rounded MT Bold, ';text-align:start;letter-spacing:1.81024814px;word-spacing:0px;writing-mode:lr-tb;text-anchor:start;fill:#ffffff;fill-opacity:1;stroke:none;stroke-width:0.36204961"
           x="-60.65387"
           y="6.7305546"
           id="text5445"><tspan
             sodipodi:role="line"
             id="tspan5443"
             x="-60.65387"
             y="6.7305546"
             style="font-style:normal;font-variant:normal;font-weight:normal;font-stretch:normal;font-family:'Arial Rounded MT Bold';-inkscape-font-specification:'Arial Rounded MT Bold, ';fill:#ffffff;stroke-width:0.36204961">C</tspan></text>
        <text
           id="text5449"
           y="7.397264"
           x="-48.704956"
           style="font-style:normal;font-variant:normal;font-weight:normal;font-stretch:normal;font-size:9.45770359px;line-height:1.25;font-family:'Arial Rounded MT Bold';-inkscape-font-specification:'Arial Rounded MT Bold, ';text-align:start;letter-spacing:1.77331972px;word-spacing:0px;writing-mode:lr-tb;text-anchor:start;fill:#000000;fill-opacity:1;stroke:none;stroke-width:0.35466391"
           xml:space="preserve"><tspan
             style="font-style:normal;font-variant:normal;font-weight:normal;font-stretch:normal;font-family:'Arial Rounded MT Bold';-inkscape-font-specification:'Arial Rounded MT Bold, ';stroke-width:0.35466391"
             y="7.397264"
             x="-48.704956"
             id="tspan5447"
             sodipodi:role="line">B</tspan></text>
        <g
           transform="matrix(1.1226197,0,0,1.1226197,42.133334,13.758271)"
           id="g5457">
          <path
             transform="scale(-1)"
             sodipodi:open="true"
             d="m 84.66717,8.3115597 a 1.5972697,1.5972697 0 0 1 -0.798635,1.3832761 1.5972697,1.5972697 0 0 1 -1.597269,-10e-8 1.5972697,1.5972697 0 0 1 -0.798635,-1.3832761"
             sodipodi:end="3.1415927"
             sodipodi:start="0"
             sodipodi:ry="1.5972697"
             sodipodi:rx="1.5972697"
             sodipodi:cy="8.3115597"
             sodipodi:cx="83.069901"
             sodipodi:type="arc"
             id="path5451"
             style="opacity:1;fill:none;fill-opacity:1;stroke:#ffffff;stroke-width:1.32291675;stroke-linecap:round;stroke-linejoin:round;stroke-miterlimit:4;stroke-dasharray:none;stroke-dashoffset:0;stroke-opacity:1" />
          <path
             style="opacity:1;fill:none;fill-opacity:1;stroke:#000000;stroke-width:0.5291667;stroke-linecap:round;stroke-linejoin:round;stroke-miterlimit:4;stroke-dasharray:none;stroke-dashoffset:0;stroke-opacity:1"
             id="path5453"
             sodipodi:type="arc"
             sodipodi:cx="83.069901"
             sodipodi:cy="8.3115597"
             sodipodi:rx="1.5972697"
             sodipodi:ry="1.5972697"
             sodipodi:start="0"
             sodipodi:end="3.1415927"
             d="m 84.66717,8.3115597 a 1.5972697,1.5972697 0 0 1 -0.798635,1.3832761 1.5972697,1.5972697 0 0 1 -1.597269,-10e-8 1.5972697,1.5972697 0 0 1 -0.798635,-1.3832761"
             sodipodi:open="true"
             transform="scale(-1)" />
        </g>
        <g
           id="g5465"
           transform="matrix(1.1226197,0,0,1.1226197,42.133334,19.47714)">
          <path
             style="opacity:1;fill:none;fill-opacity:1;stroke:#ffffff;stroke-width:1.32291675;stroke-linecap:round;stroke-linejoin:round;stroke-miterlimit:4;stroke-dasharray:none;stroke-dashoffset:0;stroke-opacity:1"
             id="path5459"
             sodipodi:type="arc"
             sodipodi:cx="83.069901"
             sodipodi:cy="8.3115597"
             sodipodi:rx="1.5972697"
             sodipodi:ry="1.5972697"
             sodipodi:start="0"
             sodipodi:end="3.1415927"
             d="m 84.66717,8.3115597 a 1.5972697,1.5972697 0 0 1 -0.798635,1.3832761 1.5972697,1.5972697 0 0 1 -1.597269,-10e-8 1.5972697,1.5972697 0 0 1 -0.798635,-1.3832761"
             sodipodi:open="true"
             transform="scale(-1)" />
          <path
             transform="scale(-1)"
             sodipodi:open="true"
             d="m 84.66717,8.3115597 a 1.5972697,1.5972697 0 0 1 -0.798635,1.3832761 1.5972697,1.5972697 0 0 1 -1.597269,-10e-8 1.5972697,1.5972697 0 0 1 -0.798635,-1.3832761"
             sodipodi:end="3.1415927"
             sodipodi:start="0"
             sodipodi:ry="1.5972697"
             sodipodi:rx="1.5972697"
             sodipodi:cy="8.3115597"
             sodipodi:cx="83.069901"
             sodipodi:type="arc"
             id="path5461"
             style="opacity:1;fill:none;fill-opacity:1;stroke:#000000;stroke-width:0.5291667;stroke-linecap:round;stroke-linejoin:round;stroke-miterlimit:4;stroke-dasharray:none;stroke-dashoffset:0;stroke-opacity:1" />
        </g>
      </g>
    </g>
    <g
       id="g5557"
       transform="matrix(2.2658333,0,0,2.2658333,106.89429,3.5381204)">
      <path
         id="rect5467"
         transform="matrix(0.26458334,0,0,0.26458334,-233.80671,56.75746)"
         d="m 696.83203,-151.68945 c 0.85095,0.86863 1.52898,1.88864 1.99805,3.0039 h 29.23047 v 50.523441 h -30.6543 a 2.8068301,2.8068301 0 0 1 -0.5918,0.07227 2.8068301,2.8068301 0 0 1 -0.66797,-0.07227 h -2.18945 v -2.894531 c -0.0405,-1.37682 -0.78034,-2.6305 -1.97851,-3.32227 -0.32413,-0.18713 -0.66745,-0.32145 -1.01954,-0.41015 v 7.740232 c 0,0.932001 0.65697,1.42354 1.07032,1.625 0.41334,0.201449 0.79702,0.257812 1.21093,0.257812 h 35.53711 c 0.41391,0 0.7976,-0.05636 1.21094,-0.257812 0.41334,-0.201449 1.07813,-0.692999 1.07813,-1.625 v -52.757812 c 0,-0.932 -0.66479,-1.41573 -1.07813,-1.61719 -0.41334,-0.20145 -0.79703,-0.26562 -1.21094,-0.26562 z m -5.87305,2.86133 v 16.75781 c 1.02868,0.10396 2.03824,0.37761 2.99805,0.81445 v -13.83984 c -0.0405,-1.37683 -0.78034,-2.6305 -1.97851,-3.32227 -0.32412,-0.18713 -0.66746,-0.32147 -1.01954,-0.41015 z m 0,22.42578 v 15.94726 c 1.02868,0.10396 2.03824,0.37566 2.99805,0.8125 v -13.02734 c -0.0405,-1.37682 -0.78034,-2.6305 -1.97851,-3.32227 -0.32413,-0.18713 -0.66745,-0.32145 -1.01954,-0.41015 z"
         style="color:#000000;font-style:normal;font-variant:normal;font-weight:normal;font-stretch:normal;font-size:medium;line-height:normal;font-family:sans-serif;font-variant-ligatures:normal;font-variant-position:normal;font-variant-caps:normal;font-variant-numeric:normal;font-variant-alternates:normal;font-feature-settings:normal;text-indent:0;text-align:start;text-decoration:none;text-decoration-line:none;text-decoration-style:solid;text-decoration-color:#000000;letter-spacing:normal;word-spacing:normal;text-transform:none;writing-mode:lr-tb;direction:ltr;text-orientation:mixed;dominant-baseline:auto;baseline-shift:baseline;text-anchor:start;white-space:normal;shape-padding:0;clip-rule:nonzero;display:inline;overflow:visible;visibility:visible;opacity:1;isolation:auto;mix-blend-mode:normal;color-interpolation:sRGB;color-interpolation-filters:linearRGB;solid-color:#000000;solid-opacity:1;vector-effect:none;fill:#000000;fill-opacity:1;fill-rule:nonzero;stroke:none;stroke-width:3;stroke-linecap:round;stroke-linejoin:round;stroke-miterlimit:4;stroke-dasharray:none;stroke-dashoffset:0;stroke-opacity:1;color-rendering:auto;image-rendering:auto;shape-rendering:auto;text-rendering:auto;enable-background:accumulate"
         inkscape:connector-curvature="0" />
      <path
         id="rect5469"
         transform="matrix(0.26458334,0,0,0.26458334,-233.80671,56.75746)"
         d="m 651.17188,-151.68945 c -0.41392,0 -0.7976,0.0642 -1.21094,0.26562 -0.41334,0.20145 -1.07032,0.68519 -1.07032,1.61719 v 52.757812 c 0,0.932001 0.65698,1.42354 1.07032,1.625 0.41334,0.201449 0.79702,0.257812 1.21094,0.257812 h 35.53515 c 0.41391,0 0.7976,-0.05636 1.21094,-0.257812 0.41334,-0.201449 1.07812,-0.692999 1.07812,-1.625 v -7.734372 c -0.34124,0.0889 -0.67365,0.22264 -0.98828,0.40429 -1.23241,0.71154 -1.98633,2.01639 -1.98633,3.43946 a 2.8068301,2.8068301 0 0 1 -0.0293,0.49804 v 2.279301 h -1.93946 a 2.8068301,2.8068301 0 0 1 -1.67382,0 h -30.49219 v -50.523441 h 29.27344 c 0.4678,-1.11526 1.14618,-2.13527 1.99609,-3.0039 z m 37.82421,2.86718 c -0.34124,0.0889 -0.67366,0.22266 -0.98828,0.4043 -1.23241,0.71154 -1.98633,2.01639 -1.98633,3.43945 a 2.8068301,2.8068301 0 0 1 -0.0293,0.49805 v 13.24219 c 0.96074,-0.44203 1.97301,-0.72254 3.0039,-0.83008 z m 0,22.42579 c -0.34124,0.0889 -0.67365,0.22264 -0.98828,0.40429 -1.23241,0.71154 -1.98633,2.01639 -1.98633,3.43946 a 2.8068301,2.8068301 0 0 1 -0.0293,0.49804 v 12.42969 c 0.96074,-0.44203 1.97301,-0.72059 3.0039,-0.82812 z"
         style="color:#000000;font-style:normal;font-variant:normal;font-weight:normal;font-stretch:normal;font-size:medium;line-height:normal;font-family:sans-serif;font-variant-ligatures:normal;font-variant-position:normal;font-variant-caps:normal;font-variant-numeric:normal;font-variant-alternates:normal;font-feature-settings:normal;text-indent:0;text-align:start;text-decoration:none;text-decoration-line:none;text-decoration-style:solid;text-decoration-color:#000000;letter-spacing:normal;word-spacing:normal;text-transform:none;writing-mode:lr-tb;direction:ltr;text-orientation:mixed;dominant-baseline:auto;baseline-shift:baseline;text-anchor:start;white-space:normal;shape-padding:0;clip-rule:nonzero;display:inline;overflow:visible;visibility:visible;opacity:1;isolation:auto;mix-blend-mode:normal;color-interpolation:sRGB;color-interpolation-filters:linearRGB;solid-color:#000000;solid-opacity:1;vector-effect:none;fill:#000000;fill-opacity:1;fill-rule:nonzero;stroke:none;stroke-width:3;stroke-linecap:round;stroke-linejoin:round;stroke-miterlimit:4;stroke-dasharray:none;stroke-dashoffset:0;stroke-opacity:1;color-rendering:auto;image-rendering:auto;shape-rendering:auto;text-rendering:auto;enable-background:accumulate"
         inkscape:connector-curvature="0" />
      <path
         id="rect5509"
         transform="matrix(0.26458334,0,0,0.26458334,-233.80671,56.75746)"
         d="m 651.17578,-150.1875 c -0.43545,0 -0.78711,0.17058 -0.78711,0.38281 v 52.757815 c 0,0.212233 0.35166,0.382811 0.78711,0.382813 h 35.5332 c 0.43545,-10e-7 0.78516,-0.17058 0.78516,-0.382813 v -6.972655 c -0.92286,0.74711 -1.47266,1.8685 -1.47266,3.08008 a 2.8068301,2.8068301 0 1 1 -5.60937,0 c 0,-3.41944 1.82775,-6.58716 4.78906,-8.29688 0.72886,-0.4208 1.50039,-0.73555 2.29297,-0.94922 v -15.44922 c -0.92286,0.74711 -1.47266,1.87046 -1.47266,3.08204 a 2.8068301,2.8068301 0 1 1 -5.60937,0 c 0,-3.41944 1.82775,-6.58716 4.78906,-8.29688 0.72886,-0.42081 1.50038,-0.73751 2.29297,-0.95117 v -16.25977 c -0.92286,0.74711 -1.47266,1.87045 -1.47266,3.08203 a 2.8068301,2.8068301 0 1 1 -5.60937,0 c 0,-1.88154 0.56892,-3.67872 1.56055,-5.20898 z m 17.06836,13.25586 c 2.11433,0 3.99544,0.42227 5.64648,1.26562 1.65108,0.84336 2.91594,1.88755 3.79493,3.13477 0.87899,1.23534 1.32031,2.40509 1.32031,3.50977 0,0.60579 -0.21496,1.14026 -0.64258,1.60351 -0.42762,0.46325 -0.94499,0.69531 -1.55078,0.69531 -0.67706,0 -1.18678,-0.15978 -1.53125,-0.48046 -0.33259,-0.32072 -0.70731,-0.87229 -1.12305,-1.65626 -0.68894,-1.2947 -1.50302,-2.26287 -2.4414,-2.90429 -0.92651,-0.64143 -2.0715,-0.96289 -3.4375,-0.96289 -2.17373,0 -3.9084,0.82548 -5.20313,2.47656 -1.28285,1.65108 -1.92383,3.99627 -1.92383,7.03711 0,2.03118 0.28532,3.724 0.85547,5.07812 0.57016,1.34225 1.37659,2.34654 2.42188,3.01172 1.04528,0.66519 2.27024,0.99805 3.67187,0.99805 1.52042,0 2.80237,-0.37472 3.84766,-1.12305 1.05716,-0.76021 1.8522,-1.871 2.38672,-3.33203 0.22568,-0.68894 0.5053,-1.24621 0.83789,-1.67383 0.33259,-0.43949 0.86706,-0.66015 1.60351,-0.66015 0.62955,0 1.16972,0.22066 1.6211,0.66015 0.45137,0.4395 0.67773,0.98537 0.67773,1.63868 0,0.83147 -0.20731,1.73496 -0.62305,2.70898 -0.40383,0.96214 -1.04483,1.91123 -1.92382,2.84961 -0.87899,0.9265 -2.00314,1.68164 -3.36914,2.26367 -1.366,0.58204 -2.95607,0.87305 -4.77344,0.87305 -1.37788,0 -2.63133,-0.13126 -3.75977,-0.39258 -1.12843,-0.26132 -2.15748,-0.66454 -3.08398,-1.21094 -0.91463,-0.55828 -1.75721,-1.28866 -2.5293,-2.1914 -0.68894,-0.8196 -1.27666,-1.73449 -1.76367,-2.74414 -0.48701,-1.02154 -0.85603,-2.10953 -1.10547,-3.26172 -0.23756,-1.15219 -0.35547,-2.37522 -0.35547,-3.66992 0,-2.10246 0.30241,-3.98549 0.90821,-5.64844 0.61767,-1.66296 1.4964,-3.08187 2.63671,-4.25782 1.14032,-1.18779 2.47747,-2.09131 4.00977,-2.70898 1.5323,-0.61767 3.16616,-0.92578 4.90039,-0.92578 z"
         style="opacity:1;fill:#000000;fill-opacity:1;stroke:none;stroke-width:3;stroke-linecap:round;stroke-linejoin:round;stroke-miterlimit:4;stroke-dasharray:none;stroke-dashoffset:0;stroke-opacity:1"
         inkscape:connector-curvature="0" />
      <path
         style="opacity:1;fill:none;fill-opacity:1;stroke:#000000;stroke-width:0.59405297;stroke-linecap:round;stroke-linejoin:round;stroke-miterlimit:4;stroke-dasharray:none;stroke-dashoffset:0;stroke-opacity:1"
         id="path5475"
         sodipodi:type="arc"
         sodipodi:cx="51.245441"
         sodipodi:cy="-18.397612"
         sodipodi:rx="1.7931263"
         sodipodi:ry="1.7931263"
         sodipodi:start="0"
         sodipodi:end="3.1415927"
         d="m 53.038568,-18.397612 a 1.7931263,1.7931263 0 0 1 -0.896563,1.552893 1.7931263,1.7931263 0 0 1 -1.793127,0 1.7931263,1.7931263 0 0 1 -0.896563,-1.552893"
         sodipodi:open="true"
         transform="scale(-1)" />
      <text
         id="text5485"
         y="27.486"
         x="-48.827824"
         style="font-style:normal;font-variant:normal;font-weight:normal;font-stretch:normal;font-size:9.45770359px;line-height:1.25;font-family:'Arial Rounded MT Bold';-inkscape-font-specification:'Arial Rounded MT Bold, ';text-align:start;letter-spacing:1.77331972px;word-spacing:0px;writing-mode:lr-tb;text-anchor:start;fill:#000000;fill-opacity:1;stroke:none;stroke-width:0.35466391"
         xml:space="preserve"><tspan
           style="font-style:normal;font-variant:normal;font-weight:normal;font-stretch:normal;font-family:'Arial Rounded MT Bold';-inkscape-font-specification:'Arial Rounded MT Bold, ';stroke-width:0.35466391"
           y="27.486"
           x="-48.827824"
           id="tspan5483"
           sodipodi:role="line">B</tspan></text>
      <path
         transform="scale(-1)"
         sodipodi:open="true"
         d="m 53.038568,-24.331985 a 1.7931263,1.7931263 0 0 1 -0.896563,1.552893 1.7931263,1.7931263 0 0 1 -1.793127,-1e-6 1.7931263,1.7931263 0 0 1 -0.896563,-1.552893"
         sodipodi:end="3.1415927"
         sodipodi:start="0"
         sodipodi:ry="1.7931263"
         sodipodi:rx="1.7931263"
         sodipodi:cy="-24.331985"
         sodipodi:cx="51.245441"
         sodipodi:type="arc"
         id="path5489"
         style="opacity:1;fill:none;fill-opacity:1;stroke:#000000;stroke-width:0.59405297;stroke-linecap:round;stroke-linejoin:round;stroke-miterlimit:4;stroke-dasharray:none;stroke-dashoffset:0;stroke-opacity:1" />
      <path
         style="opacity:1;fill:none;fill-opacity:1;stroke:#000000;stroke-width:0.59405297;stroke-linecap:round;stroke-linejoin:round;stroke-miterlimit:4;stroke-dasharray:none;stroke-dashoffset:0;stroke-opacity:1"
         id="path5495"
         sodipodi:type="arc"
         sodipodi:cx="51.245441"
         sodipodi:cy="-30.050856"
         sodipodi:rx="1.7931263"
         sodipodi:ry="1.7931263"
         sodipodi:start="0"
         sodipodi:end="3.1415927"
         d="m 53.038568,-30.050856 a 1.7931263,1.7931263 0 0 1 -0.896563,1.552893 1.7931263,1.7931263 0 0 1 -1.793127,0 1.7931263,1.7931263 0 0 1 -0.896563,-1.552893"
         sodipodi:open="true"
         transform="scale(-1)" />
    </g>
    <g
       id="g5614"
       transform="translate(55.044367,62.170646)" />
  </g>
</svg>
